<svg class="img-fluid safari" id="outputsvg" xmlns="http://www.w3.org/2000/svg" width="210.9119999999999" height="210.9119999999999" viewBox="0 0 12000 12000"><g id="l3wz2jkBDqF2U7H1io4TmE1" fill="rgb(255,255,255)" style="transform: none;"><g><path id="p16V8kg8MY" d="M0 6000 l0 -6000 6000 0 6000 0 0 6000 0 6000 -6000 0 -6000 0 0 -6000z m5270 3349 c79 -47 114 -97 145 -202 35 -122 14 -234 -61 -326 -62 -75 -60 -101 15 -217 32 -50 78 -123 101 -163 24 -39 52 -78 64 -86 26 -19 82 -19 221 0 157 21 393 19 578 -5 85 -11 167 -24 181 -30 15 -5 47 -10 70 -10 38 0 48 5 77 39 35 39 154 205 176 244 23 40 16 108 -17 156 -35 51 -53 110 -51 164 2 67 63 164 136 214 40 28 131 54 164 47 37 -8 277 -98 346 -130 17 -7 64 -29 106 -47 129 -58 198 -142 207 -252 3 -42 -2 -63 -27 -117 -51 -110 -136 -165 -269 -175 -89 -7 -97 -17 -107 -118 -4 -38 -13 -98 -21 -133 -8 -35 -14 -89 -14 -121 0 -69 1 -70 154 -171 60 -40 153 -114 205 -164 125 -120 135 -126 217 -126 58 0 75 5 131 36 69 38 103 80 103 126 0 30 50 141 78 173 88 102 226 139 347 94 133 -49 295 -270 295 -400 0 -103 -108 -253 -214 -299 -44 -18 -61 -20 -165 -14 -134 8 -161 0 -208 -63 -15 -21 -38 -49 -50 -63 -37 -40 -31 -89 22 -186 25 -45 61 -124 81 -176 20 -51 44 -102 54 -112 17 -17 41 -21 212 -28 106 -5 203 -6 215 -3 14 3 31 24 48 63 37 78 106 147 173 172 72 27 115 25 187 -10 97 -47 154 -120 174 -224 6 -28 25 -116 42 -196 41 -186 45 -314 12 -375 -42 -77 -93 -120 -177 -148 -64 -22 -84 -21 -151 4 -57 21 -108 64 -164 137 -28 37 -38 42 -71 42 -22 0 -59 -11 -86 -25 -26 -14 -51 -25 -56 -25 -4 0 -36 -13 -71 -29 -34 -15 -79 -35 -99 -44 -46 -20 -58 -56 -58 -182 -1 -131 -16 -276 -41 -390 -29 -136 -34 -190 -17 -204 91 -75 112 -86 174 -86 42 0 68 5 80 16 31 27 102 49 154 49 70 0 151 -33 210 -87 56 -51 80 -90 105 -177 16 -54 16 -62 1 -120 -10 -33 -23 -77 -31 -96 -84 -216 -114 -266 -185 -315 -44 -31 -139 -65 -179 -65 -31 0 -108 23 -148 43 -47 25 -128 118 -146 170 -9 26 -24 67 -33 92 -13 38 -21 46 -52 55 -20 5 -67 10 -104 10 -78 0 -103 -16 -141 -89 -12 -25 -35 -53 -50 -65 -24 -17 -29 -18 -53 -6 -50 27 -50 45 -3 139 49 96 124 181 160 181 27 0 184 -26 287 -47 102 -21 109 -30 114 -158 3 -118 12 -134 86 -166 58 -25 118 -24 172 4 58 29 72 50 125 190 52 138 60 224 26 287 -22 42 -90 80 -140 80 -81 0 -110 -12 -172 -67 l-61 -54 -46 27 c-26 15 -69 44 -97 63 -27 20 -76 54 -109 76 -100 68 -123 111 -95 182 6 15 15 53 20 83 5 30 16 98 24 150 9 52 19 186 23 297 9 258 -11 232 273 354 167 71 184 78 263 113 32 14 64 26 72 26 23 0 63 -52 70 -93 9 -56 32 -107 57 -128 17 -14 39 -18 95 -19 68 0 76 2 102 28 16 17 32 46 36 68 7 37 4 59 -41 279 -8 39 -22 110 -32 158 -13 66 -25 97 -47 124 l-29 35 -80 -4 c-74 -3 -81 -5 -103 -33 -20 -25 -24 -41 -24 -98 0 -62 -3 -71 -29 -98 -28 -28 -34 -29 -113 -28 -46 0 -173 6 -283 13 -269 17 -264 14 -331 191 -21 55 -71 165 -111 244 -60 116 -73 149 -68 173 10 44 278 358 306 358 9 0 44 -14 78 -31 54 -27 71 -31 121 -27 40 3 69 12 94 29 56 38 69 72 65 165 -4 76 -6 81 -49 138 -25 33 -62 73 -83 90 -36 29 -44 31 -120 31 -133 -1 -167 -37 -167 -177 0 -61 -4 -90 -16 -107 -17 -23 -112 -71 -269 -136 -49 -20 -104 -44 -122 -52 -17 -8 -40 -12 -51 -9 -10 3 -49 38 -86 77 -112 115 -196 185 -391 326 -16 12 -52 35 -80 51 -82 49 -98 72 -96 139 0 32 14 127 31 211 16 85 30 167 30 184 0 50 33 159 57 184 l22 23 57 -19 c61 -21 147 -26 188 -10 61 23 86 132 46 197 -25 41 -45 54 -160 98 -52 20 -108 43 -125 50 -251 116 -376 95 -375 -63 1 -61 16 -88 82 -137 29 -23 54 -49 56 -58 4 -20 -4 -32 -278 -415 -36 -50 -79 -99 -96 -108 -34 -19 -38 -18 -234 21 -126 25 -153 27 -405 28 -210 0 -291 -3 -363 -16 -161 -29 -183 -22 -248 76 -144 219 -272 422 -296 469 -15 30 -15 34 0 51 9 10 38 30 64 44 75 41 93 78 93 193 -1 82 -4 101 -25 140 -25 44 -27 45 -80 48 -61 4 -125 -17 -440 -140 -110 -43 -130 -71 -130 -188 0 -87 10 -112 57 -144 35 -24 46 -26 144 -26 88 0 108 -3 121 -17 23 -26 36 -78 43 -168 7 -88 31 -305 45 -403 13 -93 -1 -119 -97 -178 -43 -26 -116 -70 -161 -98 -110 -67 -234 -167 -355 -285 -54 -53 -113 -104 -132 -113 -33 -17 -35 -17 -92 6 -32 14 -89 37 -128 51 -38 15 -83 33 -100 40 -16 8 -75 32 -130 55 -123 51 -147 73 -134 127 24 105 3 189 -54 216 -48 23 -144 22 -179 -1 -28 -18 -130 -155 -170 -227 -26 -48 -30 -136 -8 -180 38 -76 168 -87 260 -21 27 20 56 36 63 36 18 0 80 -66 334 -356 96 -110 96 -99 19 -252 -44 -86 -76 -138 -95 -151 l-29 -21 -31 26 c-17 14 -31 31 -31 37 0 7 16 43 35 81 27 53 35 80 34 120 0 81 -25 126 -126 231 -89 92 -94 95 -136 95 -25 0 -62 -7 -83 -16 -120 -50 -272 25 -343 168 -54 108 -39 170 92 361 133 195 244 257 382 214 126 -40 199 -133 215 -276 5 -42 14 -69 26 -81 11 -9 83 -42 162 -74 105 -41 156 -56 192 -56 46 0 53 3 107 56 117 114 327 278 418 328 34 18 57 33 99 60 l29 19 -7 126 c-4 69 -13 172 -21 229 -14 110 -30 142 -70 142 -37 0 -118 32 -172 67 -83 54 -143 166 -143 264 0 59 37 143 87 199 62 69 170 118 533 244 66 22 147 20 190 -5z m1155 -1459 c62 -30 144 -112 176 -176 37 -74 34 -180 -6 -252 -34 -63 -106 -131 -173 -164 -70 -34 -168 -32 -243 4 -129 64 -209 192 -197 316 10 104 98 219 210 273 54 26 72 30 123 26 36 -2 80 -13 110 -27z m-921 -351 c43 -33 49 -53 25 -83 -41 -53 -142 -55 -189 -3 -28 29 -25 51 11 81 40 34 113 36 153 5z m-701 -241 c84 -31 171 -112 209 -198 27 -58 29 -73 25 -135 -6 -87 -30 -137 -100 -208 -90 -92 -184 -125 -290 -101 -100 24 -175 81 -235 179 -35 57 -37 65 -37 145 0 76 3 90 30 136 54 92 103 136 198 179 66 30 124 31 200 3z m2361 -83 c43 -21 59 -48 45 -78 -35 -78 -216 -77 -258 2 -9 16 -6 25 14 50 14 16 36 32 48 34 50 10 121 6 151 -8z m-1253 -285 c76 -14 166 -62 227 -121 64 -62 95 -109 122 -188 78 -233 -95 -497 -363 -553 -153 -32 -373 96 -449 262 -34 74 -49 158 -39 213 15 79 36 131 80 196 49 72 106 120 186 156 94 42 151 51 236 35z m1494 -321 c169 -84 245 -269 173 -421 -45 -96 -136 -172 -243 -201 -52 -14 -67 -15 -110 -3 -144 38 -233 128 -271 272 -39 151 78 327 251 375 52 14 149 3 200 -22z m-3652 -131 c19 -25 19 -32 8 -100 -14 -89 -38 -159 -65 -192 -22 -27 -36 -31 -316 -96 -74 -17 -165 -38 -202 -47 -114 -26 -142 -6 -157 117 -15 119 -53 153 -166 148 -80 -4 -116 -23 -134 -74 -14 -39 -15 -475 -1 -526 6 -20 24 -51 41 -68 29 -28 35 -30 109 -30 74 0 80 2 109 31 17 16 35 49 41 72 16 65 41 107 68 114 14 3 86 -10 170 -30 81 -20 206 -50 277 -67 155 -37 186 -60 203 -151 6 -30 18 -97 28 -149 30 -167 100 -361 207 -578 54 -110 59 -127 51 -157 -9 -34 -161 -221 -261 -323 -59 -59 -66 -59 -119 -2 -40 43 -75 60 -124 60 -82 0 -123 -39 -128 -124 -3 -59 -2 -63 45 -127 113 -156 158 -211 184 -225 58 -30 149 -11 183 38 19 26 21 101 5 147 -19 53 -6 75 63 108 173 84 341 153 374 153 13 0 47 -26 90 -70 130 -133 261 -239 447 -360 63 -41 125 -89 137 -107 21 -31 22 -36 10 -120 -31 -238 -74 -481 -89 -506 -21 -36 -46 -42 -100 -22 -51 18 -153 20 -184 4 -43 -22 -57 -50 -57 -117 0 -102 15 -116 216 -193 224 -86 266 -98 335 -99 59 0 68 3 93 29 20 20 30 43 33 74 8 70 -11 112 -70 156 -84 62 -84 62 -44 128 20 32 60 92 89 133 29 41 80 115 113 164 33 50 81 112 107 139 44 47 49 49 85 43 152 -25 329 -47 447 -55 191 -12 199 -19 272 -226 25 -71 48 -142 51 -157 6 -30 -7 -44 -81 -91 -78 -51 -91 -74 -91 -170 0 -67 4 -89 22 -117 36 -58 80 -75 197 -75 226 1 325 65 326 211 0 79 -32 130 -109 172 -93 52 -93 52 -76 223 8 79 21 164 30 189 23 66 26 68 245 130 99 28 291 100 311 117 8 7 20 13 25 13 6 0 49 20 96 45 48 25 99 45 114 45 29 0 69 -27 229 -159 55 -45 114 -93 130 -106 184 -147 181 -141 91 -234 l-66 -69 0 -72 c0 -66 2 -74 29 -101 26 -26 36 -29 94 -29 36 0 77 6 93 15 26 12 136 98 321 248 29 23 57 55 63 71 18 51 12 120 -13 157 -22 33 -25 34 -98 37 -58 2 -85 -2 -119 -17 -52 -23 -70 -17 -103 37 -33 52 -226 477 -233 511 -8 39 27 104 73 136 47 31 52 31 86 0 32 -30 31 -28 11 -67 -25 -49 -14 -119 35 -223 23 -49 52 -112 63 -140 35 -82 40 -85 135 -85 64 0 95 -5 131 -21 90 -41 150 -110 178 -206 14 -48 14 -58 0 -106 -20 -69 -68 -131 -153 -198 -37 -29 -105 -84 -150 -122 -184 -154 -276 -194 -371 -163 -106 35 -172 101 -208 204 -20 59 -12 110 26 179 35 62 41 134 13 157 -145 118 -202 164 -223 183 -43 39 -99 32 -231 -31 -135 -64 -235 -102 -384 -148 l-109 -34 -12 -70 c-15 -86 -17 -140 -4 -163 5 -10 38 -47 73 -82 65 -65 107 -146 107 -205 0 -82 -51 -198 -115 -261 -68 -67 -213 -112 -357 -113 -67 0 -87 4 -145 32 -78 37 -149 104 -184 175 -19 39 -24 63 -24 128 1 94 18 135 95 220 43 48 50 61 50 98 0 54 -35 147 -63 169 -18 14 -43 18 -127 18 -71 0 -143 8 -225 25 -144 30 -186 31 -208 8 -8 -10 -59 -79 -111 -153 -114 -160 -119 -180 -61 -276 64 -106 69 -162 25 -252 -47 -92 -126 -153 -220 -167 -58 -8 -120 11 -445 142 -161 64 -222 119 -259 229 -14 44 -15 59 -5 100 34 137 119 213 264 234 44 6 87 13 96 16 12 3 22 44 43 177 15 94 26 190 24 212 -3 39 -5 41 -151 139 -101 67 -177 127 -241 191 -61 60 -107 97 -131 105 -56 18 -161 9 -219 -20 -60 -31 -86 -70 -86 -131 0 -112 -91 -216 -223 -254 -54 -15 -61 -15 -110 1 -89 29 -249 206 -340 376 -51 94 -54 125 -24 191 66 145 196 222 306 183 49 -18 153 -21 181 -6 10 5 41 37 69 71 68 81 69 114 7 237 -76 151 -148 346 -180 487 -52 224 -50 219 -76 231 -39 19 -324 84 -368 84 -35 0 -44 -6 -101 -70 -69 -77 -160 -130 -224 -130 -96 0 -225 88 -278 191 -20 39 -23 65 -31 244 -9 213 0 322 28 378 54 104 164 179 263 180 110 1 233 -84 275 -189 11 -27 24 -52 30 -56 21 -15 123 -8 183 12 33 11 84 22 114 26 81 9 120 32 147 84 12 24 22 61 22 81 0 50 42 101 78 97 14 -2 34 -15 45 -30z m803 -423 c44 -28 48 -51 15 -87 -26 -30 -35 -33 -83 -33 -86 1 -135 50 -101 101 28 43 117 54 169 19z m2153 -301 c64 -53 20 -114 -82 -114 -44 0 -59 5 -81 25 -30 28 -32 42 -10 73 34 49 124 57 173 16z m-1421 -40 c37 -9 85 -24 107 -34 22 -9 49 -20 61 -24 11 -3 35 -22 54 -41 30 -31 32 -37 22 -60 -19 -42 -52 -50 -103 -27 -111 49 -148 56 -309 56 -153 1 -156 0 -222 -31 -72 -34 -148 -97 -183 -154 -62 -96 -81 -258 -49 -402 41 -183 193 -367 379 -457 165 -80 438 -81 575 -2 140 81 200 196 200 387 0 120 -17 191 -74 304 -27 53 -28 54 -9 79 25 34 56 44 81 26 68 -48 164 -330 148 -438 -26 -174 -85 -298 -188 -397 -96 -93 -281 -169 -407 -169 -53 0 -186 23 -251 43 -227 72 -441 258 -540 468 -48 105 -83 253 -77 326 25 261 204 474 456 543 86 23 240 25 329 4z m1925 -644 c123 -52 212 -149 241 -262 13 -51 13 -65 0 -115 -24 -94 -73 -157 -169 -218 -142 -90 -275 -96 -425 -20 -112 57 -195 170 -206 284 -6 53 -4 67 22 117 103 204 340 299 537 214z m-846 -796 c28 -18 40 -59 22 -80 -52 -63 -207 -55 -238 12 -31 69 135 122 216 68z"></path><path id="pGECd4g5J" d="M6196 7750 c-106 -69 -100 -256 9 -317 74 -41 197 -23 250 37 16 18 21 40 24 108 4 99 -11 139 -64 172 -46 28 -177 28 -219 0z"></path><path id="pxcJQhOMC" d="M4644 7171 c-89 -23 -139 -103 -131 -209 9 -113 75 -172 194 -172 118 0 193 72 193 185 0 89 -31 149 -92 181 -33 17 -123 26 -164 15z"></path><path id="pkqPwHmKj" d="M5728 6779 c-49 -14 -123 -80 -149 -133 -13 -25 -23 -71 -26 -117 -10 -140 42 -241 152 -293 73 -34 187 -37 267 -5 66 25 133 93 150 152 18 60 15 204 -4 248 -22 51 -74 107 -122 131 -48 25 -206 34 -268 17z"></path><path id="pVPTOgbyb" d="M7202 6490 c-98 -23 -151 -161 -103 -267 12 -24 37 -55 62 -72 36 -27 50 -31 106 -31 116 0 189 60 200 164 16 155 -100 245 -265 206z"></path><path id="pWfXEGYkJ" d="M6965 4951 c-89 -25 -133 -59 -160 -123 -46 -111 14 -230 134 -265 38 -11 81 -14 145 -11 109 5 161 28 206 90 26 36 30 50 30 107 0 93 -27 136 -115 183 -44 23 -185 34 -240 19z"></path></g></g><g id="l3EpRCDupL739COx2WTyzYr" fill="rgb(173,38,56)" style="transform: none;"><g><path id="pLh17wtHF" d="M5120 9400 c-81 -13 -448 -149 -527 -195 -167 -99 -216 -337 -103 -507 47 -71 180 -148 255 -148 40 0 56 -32 70 -142 7 -57 16 -146 20 -199 l7 -96 -29 -19 c-41 -28 -64 -42 -98 -60 -91 -50 -301 -214 -418 -328 -32 -31 -66 -56 -77 -56 -28 0 -302 110 -323 130 -12 11 -20 37 -23 73 -6 66 -44 160 -82 201 -61 64 -154 101 -252 99 -128 -2 -212 -61 -327 -230 -100 -147 -123 -201 -123 -292 0 -203 209 -362 400 -306 30 9 65 19 77 22 18 4 39 -13 115 -91 90 -93 126 -151 127 -203 1 -12 -17 -57 -39 -99 -22 -43 -40 -87 -40 -99 0 -31 37 -75 78 -92 32 -13 36 -13 73 11 31 21 50 50 103 156 68 133 78 178 54 223 -11 21 -47 64 -212 252 -166 187 -174 195 -223 195 -34 0 -54 -8 -94 -37 -102 -73 -212 -32 -211 79 1 33 27 81 102 187 87 122 127 142 207 104 55 -26 68 -67 52 -165 -12 -74 -11 -80 7 -105 13 -17 56 -42 125 -70 57 -25 118 -50 134 -58 17 -7 62 -25 100 -40 39 -14 96 -37 128 -51 109 -45 141 -33 284 107 121 118 245 218 355 285 45 28 118 72 161 98 59 37 81 56 93 84 17 39 17 44 -21 357 -7 61 -16 148 -20 195 -7 94 -20 146 -43 173 -13 14 -33 17 -121 17 -98 0 -109 2 -144 26 -43 29 -57 57 -57 114 0 84 28 119 130 158 267 104 384 144 411 140 64 -9 98 -183 52 -259 -12 -19 -41 -45 -65 -58 -66 -37 -88 -60 -88 -95 1 -43 36 -105 218 -386 137 -211 136 -210 180 -232 l44 -21 141 23 c121 20 177 23 377 22 212 0 248 -3 370 -27 260 -52 235 -49 282 -26 33 16 59 43 108 112 36 50 98 137 137 193 125 174 144 205 150 241 6 37 1 43 -100 130 -46 40 -55 75 -32 126 14 31 26 42 57 51 35 10 47 8 126 -21 48 -17 101 -38 117 -46 17 -7 78 -32 138 -55 109 -43 150 -74 163 -125 6 -24 -15 -73 -40 -94 -27 -23 -88 -24 -150 -2 -78 28 -112 27 -139 -3 -23 -25 -57 -134 -57 -184 0 -17 -14 -101 -31 -188 -17 -87 -31 -195 -32 -240 -2 -75 0 -85 23 -109 14 -15 48 -41 75 -57 52 -30 62 -38 180 -124 104 -76 149 -115 266 -230 106 -104 107 -104 156 -104 27 0 53 4 59 8 5 5 52 26 104 47 163 66 277 122 294 146 12 17 16 46 16 107 0 129 36 175 137 175 64 0 102 -26 172 -118 73 -95 68 -187 -12 -242 -57 -39 -86 -39 -169 1 -98 47 -120 46 -168 -4 -80 -83 -250 -290 -260 -315 -23 -59 -12 -99 63 -247 40 -79 90 -188 111 -243 67 -177 62 -174 331 -191 110 -7 251 -13 313 -13 112 -1 114 -1 143 28 26 27 29 36 29 98 0 92 24 123 97 130 48 5 52 4 79 -31 28 -35 45 -88 63 -201 5 -33 21 -113 35 -179 22 -105 24 -122 12 -151 -19 -43 -52 -65 -101 -65 -64 1 -103 48 -119 147 -4 22 -18 52 -32 66 -33 36 -91 36 -170 1 -79 -35 -96 -42 -263 -113 -182 -78 -210 -93 -241 -126 -24 -26 -25 -31 -32 -228 -4 -111 -14 -247 -23 -302 -10 -55 -21 -120 -25 -145 -4 -25 -15 -71 -24 -103 -33 -109 -13 -145 143 -252 233 -161 239 -162 330 -81 77 68 122 78 189 44 52 -27 82 -75 82 -129 0 -40 -79 -259 -108 -299 -10 -14 -39 -36 -66 -49 -44 -22 -50 -23 -89 -10 -23 8 -55 26 -72 41 -31 27 -32 34 -35 209 0 42 -33 66 -112 82 -135 28 -264 47 -317 47 -49 0 -55 -3 -100 -48 -29 -30 -65 -83 -95 -144 -53 -107 -55 -132 -10 -173 52 -48 123 -35 168 31 14 21 26 44 26 50 0 7 14 24 31 38 33 28 77 33 141 16 31 -9 39 -17 52 -55 9 -25 24 -66 33 -92 18 -52 99 -145 146 -170 160 -82 361 -41 461 96 29 40 50 86 111 241 51 130 55 215 15 325 -30 81 -113 163 -196 195 -103 39 -254 26 -317 -29 -31 -26 -77 -18 -132 22 -77 57 -77 58 -70 81 35 118 62 325 66 511 3 126 12 152 57 172 20 9 65 29 99 44 35 16 66 29 70 29 4 0 32 12 62 27 l54 28 31 -40 c92 -117 174 -165 280 -165 120 0 222 61 279 165 19 35 22 55 21 165 0 102 -6 151 -32 270 -18 80 -37 168 -43 196 -20 104 -77 177 -174 224 -159 78 -341 8 -419 -162 -15 -31 -32 -58 -39 -61 -8 -3 -91 -2 -186 2 -203 9 -193 3 -245 139 -20 52 -56 131 -81 176 -25 46 -45 87 -45 92 0 5 10 20 23 34 12 14 35 42 50 63 46 61 70 68 205 61 106 -6 122 -4 167 16 68 29 140 101 181 182 30 60 34 76 34 147 0 93 -17 140 -87 244 -99 146 -199 207 -342 207 -116 0 -207 -38 -273 -115 -28 -32 -78 -143 -78 -173 0 -46 -34 -88 -103 -126 -72 -40 -122 -46 -165 -19 -15 9 -70 58 -123 109 -52 50 -145 124 -205 164 -170 112 -167 108 -140 232 8 35 17 95 21 133 10 101 18 111 107 118 40 3 91 13 113 22 137 58 216 219 179 362 -28 106 -83 166 -204 220 -41 18 -88 40 -105 47 -16 8 -73 31 -125 51 -52 20 -117 45 -144 56 -168 66 -331 4 -413 -155 -19 -37 -26 -67 -26 -115 -2 -80 13 -132 54 -194 38 -58 35 -76 -25 -155 -24 -31 -61 -84 -84 -117 -22 -33 -52 -71 -66 -84 -24 -23 -28 -23 -68 -12 -157 47 -589 65 -831 35 -148 -19 -156 -17 -202 63 -16 26 -59 96 -97 155 -38 59 -71 114 -74 121 -3 8 14 36 36 63 51 61 67 98 81 184 12 77 0 169 -32 256 -50 133 -164 197 -309 174z"></path><path id="pk1TND8FX" d="M6162 7921 c-112 -54 -191 -156 -213 -277 -9 -47 -8 -71 6 -128 28 -114 91 -193 194 -244 50 -24 67 -27 156 -27 85 0 107 4 147 23 67 33 139 101 173 164 28 49 30 60 30 158 0 125 -18 172 -99 254 -74 75 -130 99 -241 104 -83 3 -95 1 -153 -27z m222 -200 c45 -30 66 -70 66 -126 0 -61 -15 -93 -59 -122 -97 -66 -215 -13 -237 106 -9 44 25 112 70 141 41 26 121 27 160 1z"></path><path id="p114L2F4zy" d="M5321 7564 c-85 -71 -20 -184 107 -184 135 0 199 95 118 176 -33 33 -36 34 -114 34 -72 0 -84 -3 -111 -26z"></path><path id="p3jh6CuTV" d="M4573 7325 c-95 -43 -144 -87 -198 -179 -29 -49 -30 -56 -30 -166 0 -115 0 -115 37 -175 62 -102 136 -156 248 -181 58 -13 81 -14 136 -5 88 16 137 42 201 108 79 80 95 119 100 238 5 94 3 104 -25 165 -38 86 -125 167 -209 198 -84 31 -189 29 -260 -3z m212 -203 c53 -28 92 -108 81 -164 -15 -74 -90 -138 -161 -138 -43 0 -107 35 -132 72 -33 50 -38 96 -15 149 39 91 141 128 227 81z"></path><path id="p10GlJ5PDs" d="M6983 7253 c-12 -2 -34 -18 -48 -34 -44 -53 -28 -121 35 -154 42 -22 193 -20 230 2 74 43 64 153 -17 184 -24 9 -157 10 -200 2z"></path><path id="plRqfyCHX" d="M5745 6960 c-59 -12 -154 -57 -203 -97 -129 -105 -198 -307 -157 -463 36 -141 98 -227 212 -296 187 -113 409 -92 564 53 101 95 149 206 149 349 0 139 -42 237 -142 333 -111 107 -268 152 -423 121z m223 -229 c46 -24 99 -80 120 -130 18 -44 20 -131 3 -188 -16 -59 -83 -126 -149 -152 -73 -29 -139 -27 -207 5 -134 64 -189 218 -125 351 25 51 100 118 148 132 54 15 163 6 210 -18z"></path><path id="p1Fn4RHPjV" d="M7175 6661 c-65 -18 -109 -44 -156 -92 -116 -118 -139 -283 -59 -440 46 -89 142 -156 259 -180 55 -12 70 -11 134 5 40 11 88 29 107 41 61 39 121 105 148 163 23 49 27 70 27 152 0 88 -3 101 -33 162 -36 74 -92 129 -168 168 -39 19 -67 25 -139 27 -49 1 -103 -2 -120 -6z m146 -202 c47 -16 78 -46 101 -97 32 -72 -1 -151 -82 -192 -56 -29 -99 -26 -149 11 -59 42 -88 107 -71 161 15 53 67 108 110 118 49 11 53 11 91 -1z"></path><path id="pUKbp6fMR" d="M3635 6517 c-28 -28 -35 -43 -35 -74 0 -53 -38 -125 -75 -142 -16 -8 -61 -20 -100 -27 -38 -7 -97 -20 -130 -30 -85 -24 -106 -17 -130 47 -25 66 -93 134 -164 168 -47 21 -70 26 -141 25 -76 0 -91 -3 -146 -32 -61 -33 -117 -89 -148 -150 -30 -58 -38 -180 -29 -417 11 -253 16 -269 107 -360 64 -64 140 -95 233 -95 96 0 173 39 255 131 66 74 61 72 133 55 6 -1 64 -15 130 -30 66 -15 131 -33 145 -39 26 -13 24 -8 76 -232 32 -142 104 -336 181 -488 28 -57 43 -97 39 -111 -3 -11 -32 -49 -64 -83 -65 -71 -88 -77 -176 -47 -68 23 -169 15 -221 -18 -57 -36 -113 -101 -142 -165 -21 -46 -25 -66 -21 -117 9 -104 109 -267 253 -412 111 -112 182 -135 306 -98 129 38 219 142 219 253 0 61 26 100 84 130 114 56 165 41 292 -84 65 -65 139 -124 240 -190 80 -54 148 -103 150 -110 8 -19 -47 -349 -58 -356 -5 -3 -49 -12 -96 -18 -91 -13 -133 -32 -190 -85 -40 -37 -61 -74 -78 -141 -18 -67 -17 -111 3 -171 36 -109 98 -163 258 -227 343 -138 383 -150 471 -144 118 9 201 64 254 169 50 100 42 202 -25 312 -19 32 -35 64 -35 70 0 12 179 269 209 299 17 17 22 17 143 -8 86 -17 159 -25 229 -25 83 0 108 -4 126 -18 20 -16 63 -111 63 -139 0 -7 -22 -37 -50 -68 -62 -68 -85 -114 -100 -193 -29 -160 57 -316 213 -390 63 -30 74 -32 175 -32 175 1 313 41 387 113 103 102 143 273 93 404 -16 43 -39 75 -89 126 -38 38 -71 76 -73 85 -3 10 0 51 7 92 l13 74 110 34 c148 46 248 84 383 148 63 30 121 54 130 54 9 0 27 -10 41 -23 21 -19 78 -65 223 -183 24 -19 22 -36 -14 -100 -119 -209 49 -468 293 -451 86 6 149 37 271 135 50 41 132 106 180 144 105 84 152 142 173 216 42 143 -34 304 -173 368 -41 19 -68 24 -136 24 -95 0 -100 3 -135 85 -11 28 -39 88 -61 135 -55 117 -57 131 -31 179 27 47 22 79 -18 116 -57 53 -159 19 -203 -67 -38 -75 -27 -122 91 -378 112 -244 139 -294 169 -310 29 -15 71 -12 120 10 24 11 63 20 86 20 35 0 48 -5 64 -27 49 -61 36 -118 -42 -180 -191 -155 -295 -236 -321 -248 -77 -39 -156 4 -156 85 0 37 7 48 70 115 96 102 94 140 -15 225 -31 25 -69 55 -84 67 -310 258 -322 266 -384 266 -43 1 -67 -7 -141 -46 -49 -26 -94 -47 -100 -47 -5 0 -17 -6 -25 -13 -20 -17 -212 -89 -311 -117 -219 -62 -222 -64 -245 -130 -9 -25 -23 -122 -32 -217 -20 -202 -19 -202 77 -254 96 -51 128 -121 92 -202 -35 -79 -130 -120 -278 -121 -110 -1 -172 42 -188 134 -13 74 20 129 109 180 28 16 57 41 65 55 16 31 10 58 -54 240 -73 206 -82 214 -267 226 -153 10 -331 33 -437 56 -127 28 -126 29 -429 -421 -101 -151 -100 -177 16 -256 38 -26 65 -81 55 -113 -3 -12 -18 -34 -32 -49 -43 -46 -77 -40 -366 71 -186 71 -216 95 -216 163 1 81 81 118 180 83 64 -22 125 -20 149 7 27 28 26 25 56 213 40 247 58 387 56 425 -2 54 -35 90 -158 170 -185 121 -317 227 -446 359 -73 74 -104 89 -159 73 -36 -11 -216 -82 -263 -105 -16 -8 -60 -29 -97 -47 -82 -40 -98 -68 -78 -139 22 -80 23 -90 6 -116 -9 -14 -32 -33 -51 -42 -63 -30 -90 -7 -258 225 -41 57 -48 72 -43 100 6 37 44 79 80 88 27 6 78 -16 98 -44 26 -35 71 -62 105 -62 28 0 43 10 86 53 84 84 250 285 265 320 20 47 10 86 -57 221 -105 215 -175 410 -205 576 -10 52 -22 119 -28 149 -17 90 -48 114 -202 151 -71 18 -141 34 -155 36 -14 3 -78 18 -141 35 -142 36 -211 38 -240 7 -11 -12 -25 -40 -31 -63 -5 -22 -12 -48 -15 -57 -3 -10 -19 -31 -35 -48 -26 -25 -38 -30 -79 -30 -41 0 -53 5 -79 30 -17 17 -35 48 -41 68 -14 51 -13 427 1 466 15 41 52 68 103 73 80 8 123 -38 137 -147 10 -84 25 -112 69 -130 33 -14 49 -11 330 57 58 13 117 26 133 28 15 2 63 14 107 26 61 16 85 27 99 48 38 55 71 185 71 282 0 62 -28 96 -87 105 -39 6 -45 4 -78 -29z"></path><path id="pc3BBWs9h" d="M4404 6099 c-45 -13 -67 -52 -61 -105 8 -73 72 -104 185 -91 115 13 140 149 36 193 -37 16 -112 17 -160 3z"></path><path id="p10k6jFuoI" d="M6540 5797 c-35 -18 -65 -76 -56 -111 11 -43 49 -72 104 -79 69 -8 125 2 158 28 25 20 29 30 29 70 0 40 -5 51 -33 76 -29 26 -39 29 -105 29 -39 0 -83 -6 -97 -13z"></path><path id="p04GIMXuJ" d="M5035 5760 c-184 -23 -336 -107 -436 -240 -80 -106 -117 -211 -126 -350 -5 -83 -2 -108 21 -195 47 -177 115 -293 243 -418 309 -302 807 -343 1071 -88 213 205 249 541 89 829 -38 69 -65 86 -120 79 -85 -12 -109 -83 -61 -180 134 -262 84 -508 -126 -629 -132 -76 -355 -75 -515 2 -229 111 -395 354 -395 578 0 59 33 171 65 221 35 57 111 120 183 154 63 29 72 31 192 31 126 0 206 -17 289 -60 35 -18 101 -18 128 1 29 20 46 75 34 107 -9 25 -75 88 -91 88 -6 0 -29 9 -53 19 -94 42 -274 66 -392 51z"></path><path id="pSi01MHrR" d="M7015 5129 c-172 -13 -301 -100 -376 -256 -19 -39 -21 -56 -17 -133 5 -74 10 -96 38 -149 71 -132 227 -221 391 -222 98 -1 178 22 265 77 103 64 155 139 176 252 30 161 -79 335 -255 405 -74 30 -112 34 -222 26z m163 -229 c52 -27 66 -40 91 -80 30 -50 27 -98 -9 -148 -38 -53 -98 -83 -175 -90 -85 -6 -161 17 -208 64 -66 67 -70 134 -10 205 62 74 218 99 311 49z"></path><path id="p13v6TdQfL" d="M6196 4320 c-98 -19 -118 -142 -30 -184 23 -10 61 -16 113 -16 65 0 84 4 112 23 70 47 57 147 -21 174 -39 13 -115 15 -174 3z"></path></g></g></svg>